<?xml version="1.0" encoding="utf-8"?>
<!-- Generator: Adobe Illustrator 26.0.0, SVG Export Plug-In . SVG Version: 6.00 Build 0)  -->
<svg version="1.1" id="Layer_1" xmlns="http://www.w3.org/2000/svg" xmlns:xlink="http://www.w3.org/1999/xlink" x="0px" y="0px"
	 viewBox="0 0 200 100" style="enable-background:new 0 0 200 100;" xml:space="preserve">
<style type="text/css">
	.st0{fill:#FFFFFF;}
</style>
<g>
	<g>
		<g>
			<g>
				<g>
					<rect x="10.2" y="20.46" class="st0" width="10.63" height="10.63"/>
				</g>
				<g>
					<g>
						<polygon class="st0" points="20.84,33.95 10.2,33.95 10.2,44.58 11.67,44.58 11.67,55.22 8.99,55.22 8.99,65.85 10.2,65.85 
							10.2,76.49 20.84,76.49 20.84,65.85 19.63,65.85 19.63,55.22 22.3,55.22 22.3,44.58 20.84,44.58 						"/>
					</g>
					<g>
						<polygon class="st0" points="38.01,33.95 38.01,38.3 29.59,38.3 29.59,48.86 27.37,48.86 27.37,50.93 27.37,59.5 27.37,61.57 
							29.59,61.57 29.59,72.13 38.01,72.13 38.01,76.49 48.64,76.49 59.28,76.49 59.28,65.85 48.64,65.85 40.23,65.85 40.23,61.49 
							38.01,61.49 38.01,59.5 38.01,50.93 38.01,48.94 40.23,48.94 40.23,44.58 48.64,44.58 59.28,44.58 59.28,33.95 48.64,33.95 
													"/>
					</g>
					<g>
						<polygon class="st0" points="189.56,55.22 189.56,44.58 185.69,44.58 185.69,36.16 175.13,36.16 175.13,33.95 173.06,33.95 
							164.5,33.95 162.43,33.95 162.43,36.16 153.77,36.16 151.87,36.16 143.21,36.16 143.21,33.95 141.14,33.95 132.58,33.95 
							130.51,33.95 130.51,36.16 119.95,36.16 119.95,44.58 116.08,44.58 116.08,55.22 113.64,55.22 113.64,65.85 116.08,65.85 
							116.08,76.49 126.71,76.49 126.71,65.85 124.27,65.85 124.27,55.22 126.71,55.22 126.71,46.8 130.58,46.8 130.58,44.58 
							132.58,44.58 141.14,44.58 143.14,44.58 143.14,46.8 147.49,46.8 147.49,55.22 147.49,65.85 158.13,65.85 158.13,55.22 
							158.15,55.22 158.15,46.8 162.5,46.8 162.5,44.58 164.5,44.58 173.06,44.58 175.06,44.58 175.06,46.8 178.93,46.8 
							178.93,55.22 181.37,55.22 181.37,65.85 178.93,65.85 178.93,76.49 189.56,76.49 189.56,65.85 192,65.85 192,55.22 						"/>
					</g>
					<g>
						<g>
							<path class="st0" d="M106.42,38.3h-8.42v-4.36h-1.77h-8.86H85.6h-8.86h-1.77v4.36h-8.42v10.56h-2.22v2.07v8.57v2.07h2.22
								v10.56h8.42v4.36h1.77h8.86h1.77h8.86h1.77v-4.36h8.42V61.57h2.22V59.5v-8.57v-2.07h-2.22V38.3z M98.01,59.5v1.99h-2.22v4.36
								h-8.42H85.6h-8.42v-4.36h-2.22V59.5v-8.57v-1.99h2.22v-4.36h8.42h1.77h8.42v4.36h2.22v1.99V59.5z"/>
						</g>
					</g>
				</g>
			</g>
			<g>
				<g>
					<path class="st0" d="M192,33.06h-4.12v-4.12H192V33.06z M188.16,32.78h3.57v-3.57h-3.57V32.78z"/>
				</g>
				<g>
					<g>
						<path class="st0" d="M188.92,32.27v-2.55h0.97v0c0.24,0,0.45,0.05,0.62,0.16c0.16,0.1,0.27,0.23,0.35,0.39
							c0.06,0.12,0.09,0.26,0.08,0.4c0,0.14-0.03,0.27-0.09,0.4c-0.11,0.24-0.3,0.41-0.57,0.51c0.06,0.03,0.12,0.08,0.18,0.14
							l0.49,0.56h-0.68l-0.54-0.62h-0.31v0.62H188.92z M189.43,30.23v0.92h0.46c0.25,0,0.41-0.1,0.5-0.3
							c0.03-0.06,0.04-0.13,0.04-0.19c0-0.06-0.01-0.12-0.04-0.18c-0.08-0.17-0.25-0.25-0.51-0.25v0H189.43z"/>
					</g>
				</g>
			</g>
		</g>
	</g>
</g>
</svg>
